<!-- <svg xmlns="http://www.w3.org/2000/svg" viewBox="0 0 404.655 98.179"> -->
<svg xmlns="http://www.w3.org/2000/svg" viewBox="0 0 98.179 98.179">
<g>
	<path opacity="0.68" fill="currentColor" d="M74.981,24.944c1.198-7.638-0.008-12.834-4.139-17.542C66.294,2.22,58.078,0,47.566,0
		H17.052c-2.148,0-3.978,1.563-4.312,3.686L0.033,84.258c-0.25,1.59,0.979,3.027,2.587,3.027h18.838l-1.3,8.245
		c-0.219,1.391,0.855,2.648,2.263,2.648H38.3c1.879,0,3.479-1.367,3.772-3.224l0.156-0.808l2.991-18.968l0.193-1.048
		c0.293-1.856,1.893-3.225,3.772-3.225h2.375c15.383,0,27.428-6.249,30.947-24.323c1.471-7.552,0.71-13.856-3.179-18.288
		C78.152,26.956,76.688,25.848,74.981,24.944L74.981,24.944"/>
	<path opacity="0.7" fill="currentColor" d="M74.981,24.944c1.198-7.638-0.008-12.834-4.139-17.542C66.294,2.22,58.078,0,47.566,0H17.052
		c-2.148,0-3.978,1.563-4.312,3.686L0.033,84.258c-0.25,1.59,0.979,3.027,2.587,3.027h18.838l4.732-30.007l-0.147,0.941
		c0.335-2.122,2.148-3.686,4.297-3.686h8.954c17.584,0,31.353-7.144,35.375-27.804C74.789,26.119,74.89,25.526,74.981,24.944"/>
	<path fill="currentColor" d="M31.274,25.045c0.201-1.276,1.021-2.322,2.124-2.85c0.501-0.24,1.062-0.374,1.649-0.374h23.919
		c2.834,0,5.476,0.186,7.891,0.575c0.69,0.111,1.362,0.239,2.015,0.384c0.652,0.145,1.286,0.306,1.899,0.486
		c0.307,0.089,0.608,0.184,0.905,0.282c1.186,0.394,2.291,0.858,3.307,1.397c1.198-7.638-0.008-12.834-4.139-17.542
		C66.294,2.22,58.078,0,47.566,0H17.052c-2.148,0-3.978,1.563-4.312,3.686L0.033,84.258c-0.25,1.59,0.979,3.027,2.587,3.027h18.838
		l4.732-30.007L31.274,25.045z"/>
</g>
</svg>
